<svg width="12" height="18" viewBox="0 0 12 18" fill="none" xmlns="http://www.w3.org/2000/svg">
<g id="drop dowm 1" clip-path="url(#clip0_3_6603)">
<path id="Vector" fill-rule="evenodd" clip-rule="evenodd" d="M6.664 1.12802C6.48094 0.96523 6.24448 0.875305 5.9995 0.875305C5.75453 0.875305 5.51807 0.96523 5.335 1.12802L0.835004 5.12802C0.736841 5.21528 0.656826 5.32102 0.59953 5.43921C0.542233 5.5574 0.508776 5.68571 0.501069 5.81683C0.485503 6.08163 0.575767 6.34177 0.752004 6.54002C0.92824 6.73827 1.17601 6.85839 1.44081 6.87395C1.70562 6.88952 1.96575 6.79925 2.164 6.62302L6 3.21302L9.836 6.62202C10.0343 6.79825 10.2944 6.88852 10.5592 6.87295C10.824 6.85739 11.0718 6.73727 11.248 6.53902C11.4242 6.34077 11.5145 6.08063 11.4989 5.81583C11.4834 5.55103 11.3633 5.30325 11.165 5.12702L6.665 1.12702L6.664 1.12802ZM2.164 12.128C2.06584 12.0408 1.95145 11.9737 1.82737 11.9306C1.70328 11.8876 1.57193 11.8694 1.44081 11.8771C1.17601 11.8926 0.92824 12.0128 0.752004 12.211C0.575767 12.4093 0.485503 12.6694 0.501069 12.9342C0.516634 13.199 0.636754 13.4468 0.835004 13.623L5.335 17.623C5.51807 17.7858 5.75453 17.8757 5.9995 17.8757C6.24448 17.8757 6.48094 17.7858 6.664 17.623L11.164 13.623C11.3623 13.4468 11.4824 13.199 11.4979 12.9342C11.5135 12.6694 11.4232 12.4093 11.247 12.211C11.0708 12.0128 10.823 11.8926 10.5582 11.8771C10.2934 11.8615 10.0333 11.9518 9.835 12.128L6 15.537L2.164 12.127V12.128Z" fill="#777777"/>
</g>
<defs>
<clipPath id="clip0_3_6603">
<rect width="12" height="18" fill="white"/>
</clipPath>
</defs>
</svg>
