<svg width="17" height="18" viewBox="0 0 17 18" fill="none" xmlns="http://www.w3.org/2000/svg">
<g id="number" clip-path="url(#clip0_3_6598)">
<path id="Vector" fill-rule="evenodd" clip-rule="evenodd" d="M6.68895 2.97799C6.68882 2.88459 6.70712 2.79207 6.74281 2.70575C6.77849 2.61943 6.83086 2.541 6.89691 2.47495C6.96296 2.4089 7.04139 2.35653 7.12771 2.32085C7.21403 2.28516 7.30655 2.26686 7.39995 2.26699H14.511C14.6044 2.26686 14.6969 2.28516 14.7832 2.32085C14.8695 2.35653 14.948 2.4089 15.014 2.47495C15.08 2.541 15.1324 2.61943 15.1681 2.70575C15.2038 2.79207 15.2221 2.88459 15.222 2.97799V7.24499C15.2221 7.3384 15.2038 7.43092 15.1681 7.51724C15.1324 7.60356 15.08 7.68199 15.014 7.74804C14.948 7.81409 14.8695 7.86646 14.7832 7.90214C14.6969 7.93783 14.6044 7.95613 14.511 7.95599H8.82195C8.71157 7.95593 8.60268 7.98161 8.50395 8.03099L6.68895 8.93899V2.97799ZM7.39995 0.843994C6.22196 0.843994 5.26696 1.79899 5.26696 2.97699V10.088C5.26666 10.2093 5.29746 10.3287 5.35641 10.4347C5.41535 10.5407 5.50048 10.6299 5.60367 10.6936C5.70685 10.7574 5.82466 10.7937 5.94586 10.799C6.06705 10.8043 6.18758 10.7785 6.29595 10.724L8.98995 9.37799H14.511C15.689 9.37799 16.644 8.42299 16.644 7.24499V2.97799C16.644 1.79999 15.689 0.844994 14.511 0.844994H7.39995V0.843994ZM2.42196 2.26699C1.24396 2.26699 0.288956 3.22199 0.288956 4.39999V15.778C0.288956 16.956 1.24396 17.911 2.42196 17.911H10.244C11.422 17.911 12.377 16.956 12.377 15.778V10.8C12.377 10.6114 12.302 10.4306 12.1687 10.2972C12.0354 10.1639 11.8545 10.089 11.666 10.089C11.4774 10.089 11.2965 10.1639 11.1632 10.2972C11.0299 10.4306 10.955 10.6114 10.955 10.8V15.778C10.9551 15.8714 10.9368 15.9639 10.9011 16.0502C10.8654 16.1366 10.8131 16.215 10.747 16.281C10.681 16.3471 10.6025 16.3995 10.5162 16.4351C10.4299 16.4708 10.3374 16.4891 10.244 16.489H2.42196C2.32855 16.4891 2.23603 16.4708 2.14971 16.4351C2.06339 16.3995 1.98496 16.3471 1.91891 16.281C1.85286 16.215 1.80049 16.1366 1.76481 16.0502C1.72912 15.9639 1.71082 15.8714 1.71096 15.778V4.39999C1.71082 4.30659 1.72912 4.21407 1.76481 4.12775C1.80049 4.04143 1.85286 3.963 1.91891 3.89695C1.98496 3.8309 2.06339 3.77853 2.14971 3.74285C2.23603 3.70716 2.32855 3.68886 2.42196 3.68899H3.84396C3.93733 3.68899 4.02978 3.6706 4.11604 3.63487C4.20231 3.59914 4.28069 3.54677 4.34671 3.48075C4.41273 3.41472 4.4651 3.33634 4.50083 3.25008C4.53656 3.16382 4.55496 3.07136 4.55496 2.97799C4.55496 2.88462 4.53656 2.79217 4.50083 2.70591C4.4651 2.61964 4.41273 2.54126 4.34671 2.47524C4.28069 2.40922 4.20231 2.35685 4.11604 2.32112C4.02978 2.28538 3.93733 2.26699 3.84396 2.26699H2.42196Z" fill="#777777"/>
</g>
<defs>
<clipPath id="clip0_3_6598">
<rect width="17" height="18" fill="white"/>
</clipPath>
</defs>
</svg>
